<?xml version="1.0" standalone="no"?>
<!DOCTYPE svg PUBLIC "-//W3C//DTD SVG 20010904//EN"
 "http://www.w3.org/TR/2001/REC-SVG-20010904/DTD/svg10.dtd">
<svg version="1.0" xmlns="http://www.w3.org/2000/svg"
 width="688.000000pt" height="210.000000pt" viewBox="0 0 688.000000 210.000000"
 preserveAspectRatio="xMidYMid meet">

<g transform="translate(0.000000,210.000000) scale(0.100000,-0.100000)"
fill="#1f1f1f" stroke="none">
<path d="M1590 2076 c0 -30 39 -128 64 -161 32 -41 76 -69 143 -88 l52 -16 6
43 c19 123 -68 221 -207 233 -50 5 -58 3 -58 -11z"/>
<path d="M1956 1997 c-47 -26 -76 -78 -79 -139 -2 -40 -1 -43 23 -40 36 4 97
47 115 82 8 16 18 50 22 75 5 43 4 45 -18 45 -13 0 -42 -10 -63 -23z"/>
<path d="M72 1650 c2 -5 145 -365 318 -800 l315 -790 139 2 138 3 319 789
c175 434 319 793 319 798 0 5 -60 7 -136 6 l-137 -3 -245 -643 c-136 -353
-249 -642 -252 -642 -4 0 -109 271 -235 603 -125 331 -236 621 -246 645 l-18
42 -141 0 c-86 0 -140 -4 -138 -10z"/>
<path d="M1720 860 l0 -800 135 0 135 0 -2 798 -3 797 -132 3 -133 3 0 -801z"/>
<path d="M2800 1641 c-166 -36 -306 -114 -426 -236 -319 -323 -292 -860 59
-1155 265 -224 638 -260 997 -98 36 16 91 46 122 66 l58 37 0 293 0 292 -115
0 -115 0 0 -220 0 -221 -81 -39 c-200 -97 -422 -92 -600 12 -251 148 -346 465
-219 736 21 46 53 87 108 142 82 82 153 125 258 156 78 23 237 23 324 1 84
-22 194 -76 247 -122 24 -20 47 -34 52 -30 23 14 142 178 138 189 -15 39 -238
154 -362 187 -115 31 -329 36 -445 10z"/>
<path d="M4020 878 c-190 -429 -348 -789 -352 -800 -7 -17 1 -18 131 -18 l137
0 75 178 75 177 406 3 406 2 75 -177 76 -178 141 -3 c133 -2 142 -1 136 15 -4
10 -161 370 -349 801 l-341 782 -136 0 -135 0 -345 -782z m765 -197 l6 -21
-300 0 -301 0 9 23 c5 12 68 161 141 332 73 171 136 321 142 335 8 22 26 -15
153 -311 79 -185 146 -346 150 -358z"/>
<path d="M5427 1653 c-4 -3 -7 -363 -7 -800 l0 -793 135 0 135 0 2 572 3 572
425 -572 424 -572 133 0 133 0 -2 797 -3 798 -130 0 -130 0 -5 -569 -5 -569
-390 524 c-214 288 -407 545 -428 571 l-37 48 -124 0 c-67 0 -126 -3 -129 -7z"/>
</g>
</svg>
